<svg width="106" height="106" viewBox="0 0 106 106" fill="none" xmlns="http://www.w3.org/2000/svg">
<g clip-path="url(#clip0_96_147)">
<path d="M39.8003 16.4731C39.8003 12.8981 36.9296 10 33.3884 10C29.8473 10 26.9766 12.8981 26.9766 16.4731V61.5269C26.9766 65.1019 29.8473 68 33.3884 68C36.9296 68 39.8003 65.1019 39.8003 61.5269V16.4731Z" fill="url(#paint0_linear_96_147)"/>
<path d="M59.4097 23.8159C59.4097 20.2409 56.539 17.3428 52.9978 17.3428C49.4566 17.3428 46.5859 20.2409 46.5859 23.8159V54.1838C46.5859 57.7588 49.4566 60.6569 52.9978 60.6569C56.539 60.6569 59.4097 57.7588 59.4097 54.1838V23.8159Z" fill="url(#paint1_linear_96_147)"/>
<path d="M79.0268 35.4321C79.0268 31.8571 76.1562 28.959 72.615 28.959C69.0738 28.959 66.2031 31.8571 66.2031 35.4321V42.5727C66.2031 46.1477 69.0738 49.0458 72.615 49.0458C76.1562 49.0458 79.0268 46.1477 79.0268 42.5727V35.4321Z" fill="url(#paint2_linear_96_147)"/>
</g>
<path d="M17.088 78.576C18.56 78.576 19.632 78.896 20.304 79.536C20.9867 80.1653 21.328 81.0347 21.328 82.144C21.328 82.6453 21.2533 83.1253 21.104 83.584C20.9547 84.032 20.704 84.4373 20.352 84.8C20.0107 85.152 19.5573 85.4293 18.992 85.632C18.4267 85.8347 17.728 85.936 16.896 85.936H15.856V90H13.44V78.576H17.088ZM16.96 80.56H15.856V83.952H16.656C17.1147 83.952 17.5093 83.8933 17.84 83.776C18.1707 83.6587 18.4267 83.472 18.608 83.216C18.7893 82.96 18.88 82.6293 18.88 82.224C18.88 81.6587 18.7253 81.2427 18.416 80.976C18.1067 80.6987 17.6213 80.56 16.96 80.56ZM25.6789 81.264V90H23.2949V81.264H25.6789ZM24.4949 77.84C24.8469 77.84 25.1509 77.9253 25.4069 78.096C25.6629 78.256 25.7909 78.56 25.7909 79.008C25.7909 79.4453 25.6629 79.7493 25.4069 79.92C25.1509 80.0907 24.8469 80.176 24.4949 80.176C24.1322 80.176 23.8229 80.0907 23.5669 79.92C23.3215 79.7493 23.1989 79.4453 23.1989 79.008C23.1989 78.56 23.3215 78.256 23.5669 78.096C23.8229 77.9253 24.1322 77.84 24.4949 77.84ZM31.7539 81.088C32.9272 81.088 33.8232 81.344 34.4419 81.856C35.0712 82.3573 35.3859 83.1307 35.3859 84.176V90H33.7219L33.2579 88.816H33.1939C32.9485 89.1253 32.6925 89.3813 32.4259 89.584C32.1699 89.7867 31.8712 89.9307 31.5299 90.016C31.1992 90.112 30.7885 90.16 30.2979 90.16C29.7859 90.16 29.3219 90.064 28.9059 89.872C28.5005 89.6693 28.1805 89.3653 27.9459 88.96C27.7112 88.544 27.5939 88.0213 27.5939 87.392C27.5939 86.464 27.9192 85.7813 28.5699 85.344C29.2205 84.896 30.1965 84.6507 31.4979 84.608L33.0179 84.56V84.176C33.0179 83.7173 32.8952 83.3813 32.6499 83.168C32.4152 82.9547 32.0845 82.848 31.6579 82.848C31.2312 82.848 30.8152 82.912 30.4099 83.04C30.0045 83.1573 29.5992 83.3067 29.1939 83.488L28.4099 81.872C28.8792 81.6267 29.3965 81.4347 29.9619 81.296C30.5379 81.1573 31.1352 81.088 31.7539 81.088ZM32.0899 85.984C31.3219 86.0053 30.7885 86.144 30.4899 86.4C30.1912 86.656 30.0419 86.992 30.0419 87.408C30.0419 87.7707 30.1485 88.032 30.3619 88.192C30.5752 88.3413 30.8525 88.416 31.1939 88.416C31.7059 88.416 32.1379 88.2667 32.4899 87.968C32.8419 87.6587 33.0179 87.2267 33.0179 86.672V85.952L32.0899 85.984ZM42.7861 81.104C43.7248 81.104 44.4768 81.36 45.0421 81.872C45.6075 82.3733 45.8901 83.184 45.8901 84.304V90H43.5061V84.896C43.5061 84.2667 43.3941 83.7973 43.1701 83.488C42.9461 83.168 42.5888 83.008 42.0981 83.008C41.3728 83.008 40.8768 83.2587 40.6101 83.76C40.3435 84.2507 40.2101 84.96 40.2101 85.888V90H37.8261V81.264H39.6501L39.9701 82.384H40.0981C40.2901 82.0853 40.5248 81.8453 40.8021 81.664C41.0795 81.472 41.3888 81.3333 41.7301 81.248C42.0715 81.152 42.4235 81.104 42.7861 81.104ZM56.2778 85.616C56.2778 86.3413 56.1764 86.9867 55.9738 87.552C55.7818 88.1173 55.4991 88.5973 55.1258 88.992C54.7631 89.376 54.3204 89.6693 53.7978 89.872C53.2751 90.064 52.6831 90.16 52.0218 90.16C51.4138 90.16 50.8484 90.064 50.3258 89.872C49.8138 89.6693 49.3711 89.376 48.9978 88.992C48.6244 88.5973 48.3311 88.1173 48.1178 87.552C47.9151 86.9867 47.8138 86.3413 47.8138 85.616C47.8138 84.6453 47.9844 83.8293 48.3258 83.168C48.6671 82.496 49.1578 81.984 49.7978 81.632C50.4378 81.28 51.1951 81.104 52.0698 81.104C52.8911 81.104 53.6164 81.28 54.2458 81.632C54.8751 81.984 55.3711 82.496 55.7338 83.168C56.0964 83.8293 56.2778 84.6453 56.2778 85.616ZM50.2458 85.616C50.2458 86.192 50.3044 86.6773 50.4218 87.072C50.5498 87.456 50.7471 87.7493 51.0138 87.952C51.2804 88.144 51.6271 88.24 52.0538 88.24C52.4804 88.24 52.8218 88.144 53.0778 87.952C53.3444 87.7493 53.5364 87.456 53.6538 87.072C53.7818 86.6773 53.8458 86.192 53.8458 85.616C53.8458 85.04 53.7818 84.56 53.6538 84.176C53.5364 83.792 53.3444 83.504 53.0778 83.312C52.8111 83.12 52.4644 83.024 52.0378 83.024C51.4084 83.024 50.9498 83.2427 50.6618 83.68C50.3844 84.1067 50.2458 84.752 50.2458 85.616ZM70.4164 90L69.5844 87.28H65.4244L64.5924 90H61.9844L66.0164 78.528H68.9764L73.0244 90H70.4164ZM68.1764 82.592C68.123 82.4107 68.0537 82.1813 67.9684 81.904C67.883 81.6267 67.7977 81.344 67.7124 81.056C67.627 80.768 67.5577 80.5173 67.5044 80.304C67.451 80.5173 67.3764 80.784 67.2804 81.104C67.195 81.4133 67.1097 81.712 67.0244 82C66.9497 82.2773 66.891 82.4747 66.8484 82.592L66.0324 85.248H69.0084L68.1764 82.592ZM79.1433 81.104C80.1246 81.104 80.9193 81.488 81.5273 82.256C82.1353 83.0133 82.4392 84.1333 82.4392 85.616C82.4392 86.608 82.2953 87.4453 82.0073 88.128C81.7193 88.8 81.3246 89.3067 80.8233 89.648C80.3219 89.9893 79.7406 90.16 79.0793 90.16C78.6633 90.16 78.3006 90.1067 77.9913 90C77.6926 89.8933 77.4366 89.7547 77.2233 89.584C77.0099 89.4133 76.8233 89.232 76.6633 89.04H76.5353C76.5779 89.2427 76.6099 89.456 76.6313 89.68C76.6526 89.8933 76.6633 90.1067 76.6633 90.32V93.84H74.2793V81.264H76.2153L76.5513 82.4H76.6633C76.8233 82.1653 77.0153 81.952 77.2393 81.76C77.4633 81.5573 77.7299 81.3973 78.0393 81.28C78.3593 81.1627 78.7273 81.104 79.1433 81.104ZM78.3753 83.008C77.9593 83.008 77.6286 83.0933 77.3833 83.264C77.1379 83.4347 76.9566 83.696 76.8393 84.048C76.7326 84.3893 76.6739 84.8213 76.6633 85.344V85.6C76.6633 86.1653 76.7166 86.6453 76.8233 87.04C76.9299 87.424 77.1113 87.7173 77.3673 87.92C77.6233 88.1227 77.9699 88.224 78.4073 88.224C78.7699 88.224 79.0686 88.1227 79.3033 87.92C79.5379 87.7173 79.7139 87.4187 79.8313 87.024C79.9486 86.6293 80.0073 86.1493 80.0073 85.584C80.0073 84.7307 79.8739 84.0907 79.6073 83.664C79.3513 83.2267 78.9406 83.008 78.3753 83.008ZM89.2683 81.104C90.2496 81.104 91.0443 81.488 91.6523 82.256C92.2603 83.0133 92.5642 84.1333 92.5642 85.616C92.5642 86.608 92.4203 87.4453 92.1323 88.128C91.8443 88.8 91.4496 89.3067 90.9483 89.648C90.4469 89.9893 89.8656 90.16 89.2043 90.16C88.7883 90.16 88.4256 90.1067 88.1163 90C87.8176 89.8933 87.5616 89.7547 87.3483 89.584C87.1349 89.4133 86.9483 89.232 86.7883 89.04H86.6603C86.7029 89.2427 86.7349 89.456 86.7563 89.68C86.7776 89.8933 86.7883 90.1067 86.7883 90.32V93.84H84.4043V81.264H86.3403L86.6763 82.4H86.7883C86.9483 82.1653 87.1403 81.952 87.3643 81.76C87.5883 81.5573 87.8549 81.3973 88.1643 81.28C88.4843 81.1627 88.8523 81.104 89.2683 81.104ZM88.5003 83.008C88.0843 83.008 87.7536 83.0933 87.5083 83.264C87.2629 83.4347 87.0816 83.696 86.9643 84.048C86.8576 84.3893 86.7989 84.8213 86.7883 85.344V85.6C86.7883 86.1653 86.8416 86.6453 86.9483 87.04C87.0549 87.424 87.2363 87.7173 87.4923 87.92C87.7483 88.1227 88.0949 88.224 88.5323 88.224C88.8949 88.224 89.1936 88.1227 89.4283 87.92C89.6629 87.7173 89.8389 87.4187 89.9563 87.024C90.0736 86.6293 90.1323 86.1493 90.1323 85.584C90.1323 84.7307 89.9989 84.0907 89.7323 83.664C89.4763 83.2267 89.0656 83.008 88.5003 83.008Z" fill="#F6F6F6"/>
<defs>
<linearGradient id="paint0_linear_96_147" x1="33.3884" y1="4.39275" x2="33.3884" y2="67.0363" gradientUnits="userSpaceOnUse">
<stop offset="0.04" stop-color="#C100E6"/>
<stop offset="1" stop-color="#00F0FF"/>
</linearGradient>
<linearGradient id="paint1_linear_96_147" x1="52.9978" y1="13.1553" x2="52.9978" y2="59.9372" gradientUnits="userSpaceOnUse">
<stop offset="0.04" stop-color="#C100E6"/>
<stop offset="1" stop-color="#00F0FF"/>
</linearGradient>
<linearGradient id="paint2_linear_96_147" x1="72.615" y1="27.0171" x2="72.615" y2="48.7121" gradientUnits="userSpaceOnUse">
<stop offset="0.04" stop-color="#C100E6"/>
<stop offset="1" stop-color="#00F0FF"/>
</linearGradient>
<clipPath id="clip0_96_147">
<rect width="52.0513" height="58" fill="white" transform="translate(26.9766 10)"/>
</clipPath>
</defs>
</svg>
